<?xml version="1.0" encoding="UTF-8" standalone="no"?>
<svg width="304px" height="216px" viewBox="0 0 304 216" version="1.1" xmlns="http://www.w3.org/2000/svg" xmlns:xlink="http://www.w3.org/1999/xlink" xmlns:sketch="http://www.bohemiancoding.com/sketch/ns">
    <!-- Generator: Sketch 3.0.3 (7892) - http://www.bohemiancoding.com/sketch -->
    <title>Slice 1</title>
    <desc>Created with Sketch.</desc>
    <defs></defs>
    <g id="Page-1" stroke="none" stroke-width="1" fill="none" fill-rule="evenodd" sketch:type="MSPage">
        <path d="M117.082856,29.1123603 C117.222856,29.7073603 117.444856,30.2743603 118.054856,30.2503603 C118.630856,30.2283603 118.835856,29.8603603 118.873856,29.2823603 C119.369856,21.8243603 120.186856,13.0063603 119.519856,6.14736029 C119.497856,5.90936029 119.350856,5.32236029 119.350856,5.32236029 C118.952856,3.51036029 115.940856,2.57736029 113.269856,4.03036029 C111.055856,5.16336029 110.741856,7.08436029 111.355856,8.73236029 C114.748856,17.7863603 115.597856,22.7713603 117.082856,29.1123603 L117.082856,29.1123603 Z M112.358856,35.9403603 C112.358856,35.9403603 112.281856,36.1603603 112.277856,36.2533603 C112.050856,38.9603603 111.289856,41.7163603 112.023856,46.3483603 C112.076856,46.7123603 112.219856,47.2193603 112.794856,47.1603603 C113.998856,47.2553603 113.950856,44.6763603 116.896856,38.9473603 C117.218856,38.2923603 116.977856,36.4263603 115.375856,35.5733603 C113.478856,34.5353603 112.559856,35.2673603 112.358856,35.9403603 L112.358856,35.9403603 Z M119.325856,46.7843603 C120.430856,47.2893603 121.283856,44.8343603 126.057856,40.4333603 C126.590856,39.9253603 127.008856,38.0803603 125.786856,36.7193603 C124.359856,35.0793603 123.236856,35.4583603 122.811856,36.0223603 C122.811856,36.0223603 122.663856,36.2043603 122.624856,36.2933603 C121.468856,38.7733603 119.795856,41.1153603 118.879856,45.7503603 C118.804856,46.1113603 118.762856,46.6413603 119.325856,46.7843603 L119.325856,46.7843603 Z M121.604856,73.2723603 C121.170856,73.0943603 120.875856,73.5433603 120.699856,73.8773603 C118.432856,78.1053603 118.251856,80.7653603 117.324856,83.6903603 C117.285856,83.7933603 117.251856,84.0723603 117.251856,84.0723603 C117.111856,84.9123603 117.467856,86.3013603 119.421856,86.4113603 C121.259856,86.5483603 122.329856,84.3943603 122.304856,83.3793603 C121.974856,75.6463603 122.657856,73.4403603 121.604856,73.2723603 L121.604856,73.2723603 Z M111.447856,30.0583603 C111.725856,30.5323603 112.142856,30.6563603 112.658856,30.4793603 C113.152856,30.3093603 113.154856,29.8483603 113.038856,29.3373603 C111.516856,22.7853603 109.240856,14.6573603 106.876856,8.92136029 C106.797856,8.72136029 106.520856,8.25536029 106.520856,8.25536029 C105.699856,6.79536029 102.684856,6.69836029 100.762856,8.64336029 C99.1498556,10.1913603 99.4038556,11.9753603 100.364856,13.2353603 C105.648856,20.1553603 108.513856,24.9773603 111.447856,30.0583603 L111.447856,30.0583603 Z M124.023856,30.9443603 C124.678856,31.1093603 125.066856,30.7223603 125.302856,30.0843603 C128.348856,21.8333603 132.355856,13.1173603 133.891856,5.15536029 C133.943856,4.87936029 133.977856,4.16936029 133.977856,4.16936029 C134.133856,1.99436029 130.699856,-0.400639705 127.196856,0.353360295 C124.321856,0.896360295 123.116856,2.89136029 123.262856,4.95836029 C124.073856,16.2993603 123.419856,21.8353603 122.980856,29.4853603 C122.942856,30.1993603 123.326856,30.7683603 124.023856,30.9443603 L124.023856,30.9443603 Z M90.9058556,20.6403603 C98.1258556,25.5273603 101.180856,28.2333603 105.582856,32.1193603 C105.995856,32.4813603 106.422856,32.5973603 106.855856,32.2623603 C107.267856,31.9463603 107.473856,31.5783603 107.199856,31.1343603 C103.485856,25.0983603 99.5088556,19.1453603 95.6888556,14.7453603 C95.5458556,14.5803603 95.1328556,14.2253603 95.1328556,14.2253603 C93.8918556,13.1013603 91.0108556,13.6523603 89.8068556,16.1063603 C88.7748556,18.0823603 89.5928556,19.7493603 90.9058556,20.6403603 L90.9058556,20.6403603 Z M95.1178556,62.8873603 C95.2968556,65.0823603 97.1998556,66.2223603 98.0428556,66.0633603 C104.140856,65.3083603 107.449856,65.5073603 107.667856,64.0583603 C107.879856,63.4213603 107.385856,63.0883603 107.012856,62.9083603 C101.251856,61.2483603 100.283856,60.3113603 97.4668556,59.6893603 C97.3678556,59.6623603 97.1128556,59.6763603 97.1128556,59.6763603 C96.3578556,59.6763603 94.8778556,60.4173603 95.1178556,62.8873603 L95.1178556,62.8873603 Z M107.618856,40.3053603 C107.614856,39.5783603 106.581856,38.0203603 104.769856,37.9633603 C102.618856,37.8663603 102.153856,40.7723603 102.272856,41.4613603 C102.272856,41.4613603 102.273856,43.4723603 106.569856,50.8983603 C106.774856,51.2023603 107.129856,51.5903603 107.612856,51.2853603 C108.732856,50.8433603 107.519856,46.7103603 107.618856,40.3053603 L107.618856,40.3053603 Z M96.3508556,52.8773603 C98.7458556,54.2653603 100.569856,55.6953603 105.207856,57.0233603 C105.569856,57.1323603 106.109856,57.2163603 106.332856,56.6533603 C107.009856,55.5663603 104.221856,54.1963603 100.353856,48.9383603 C99.9038556,48.3543603 98.0618556,47.7653603 96.4938556,48.9003603 C94.6098556,50.2243603 95.5758556,52.1803603 96.1008556,52.6613603 C96.0998556,52.6613603 96.2648556,52.8323603 96.3508556,52.8773603 L96.3508556,52.8773603 Z M131.746856,63.5203603 C131.746856,63.5203603 131.724856,63.4633603 131.704856,63.4473603 C131.208856,62.9173603 131.030856,62.4943603 129.834856,61.8193603 C129.742856,61.7643603 129.591856,61.7023603 129.423856,61.8323603 C129.031856,62.0643603 129.587856,62.5153603 129.872856,64.1483603 C129.907856,64.3313603 130.372856,64.6163603 131.049856,64.4373603 C131.857856,64.2323603 131.823856,63.6833603 131.746856,63.5203603 L131.746856,63.5203603 Z M135.725856,83.4503603 C135.759856,83.5813603 135.902856,83.9033603 135.902856,83.9033603 C136.299856,84.8873603 137.582856,86.1423603 139.745856,84.9993603 C141.794856,83.9663603 141.539856,80.9773603 140.853856,79.9063603 C135.468856,71.8633603 134.875856,68.4293603 133.639856,68.9273603 C133.063856,69.0173603 133.037856,69.6853603 133.063856,70.1563603 C133.394856,76.1293603 134.819856,79.7263603 135.725856,83.4503603 L135.725856,83.4503603 Z M134.662856,59.3893603 C135.626856,58.5143603 135.138856,57.7533603 134.898856,57.5763603 C134.898856,57.5763603 134.823856,57.5143603 134.785856,57.5033603 C133.661856,57.1033603 133.078856,56.6293603 130.862856,56.5243603 C130.690856,56.5133603 130.428856,56.5343603 130.299856,56.8383603 C129.937856,57.4533603 131.072856,57.6983603 132.781856,59.8263603 C132.979856,60.0623603 133.859856,60.1323603 134.662856,59.3893603 L134.662856,59.3893603 Z M131.436856,41.6023603 C131.436856,41.6023603 131.275856,41.6563603 131.220856,41.7043603 C129.586856,42.8883603 128.357856,43.3173603 126.112856,46.1683603 C125.933856,46.3883603 125.717856,46.7463603 126.032856,47.1363603 C126.568856,48.0623603 127.992856,46.7403603 132.655856,46.0273603 C133.180856,45.9363603 134.109856,44.8273603 133.803856,43.2303603 C133.464856,41.3253603 131.912856,41.4153603 131.436856,41.6023603 L131.436856,41.6023603 Z M82.8028556,29.9473603 C91.2978556,31.9253603 95.5368556,33.6373603 101.045856,35.6903603 C101.561856,35.8783603 102.107856,35.7773603 102.393856,35.3103603 C102.662856,34.8703603 102.618856,34.6893603 102.237856,34.3323603 C97.6498556,30.0273603 90.8388556,25.5433603 85.3518556,22.6253603 C85.1618556,22.5223603 84.6448556,22.3373603 84.6448556,22.3373603 C83.0828556,21.7333603 80.5508556,23.5063603 80.3148556,26.2273603 C80.0638556,28.4433603 81.2538556,29.5863603 82.8028556,29.9473603 L82.8028556,29.9473603 Z M129.307856,86.6573603 C131.407856,86.2383603 131.923856,83.4923603 131.574856,82.3613603 C128.747856,73.8113603 129.073856,71.5193603 127.840856,71.6603603 C127.298856,71.5973603 127.109856,72.1903603 127.017856,72.6213603 C125.823856,78.0613603 126.203856,80.7053603 126.091856,84.2693603 C126.084856,84.3973603 126.133856,84.7213603 126.133856,84.7213603 C126.244856,85.7033603 127.082856,87.1473603 129.307856,86.6573603 L129.307856,86.6573603 Z M129.962856,51.9173603 C130.035856,52.8893603 131.499856,52.2793603 135.077856,53.3373603 C135.485856,53.4443603 136.522856,52.8393603 136.843856,51.3833603 C137.237856,49.6553603 136.095856,49.1823603 135.689856,49.1693603 C135.689856,49.1693603 135.557856,49.1583603 135.502856,49.1763603 C133.936856,49.5973603 132.907856,49.5233603 130.345856,51.1303603 C130.141856,51.2513603 129.865856,51.4763603 129.962856,51.9173603 L129.962856,51.9173603 Z M133.939856,36.7403603 C134.425856,37.3713603 135.077856,37.3583603 135.763856,36.9453603 C141.513856,33.4563603 147.214856,29.9143603 152.505856,26.1693603 C157.796856,29.9143603 163.496856,33.4563603 169.248856,36.9453603 C169.933856,37.3583603 170.586856,37.3713603 171.072856,36.7403603 C171.587856,36.0703603 171.114856,35.3373603 170.554856,34.7073603 C164.534856,27.9883603 160.075856,23.9173603 152.504856,12.9053603 C144.933856,23.9173603 140.473856,27.9883603 134.455856,34.7073603 C133.895856,35.3363603 133.426856,36.0703603 133.939856,36.7403603 L133.939856,36.7403603 Z M144.291856,78.9723603 C144.993856,79.9223603 146.721856,80.9203603 148.731856,79.0953603 C150.654856,77.4193603 149.550856,74.2723603 148.517856,73.3103603 C140.493856,66.1323603 139.636856,63.7253603 138.444856,64.6013603 C137.847856,64.8583603 138.008856,65.5823603 138.166856,66.0833603 C140.175856,72.4193603 141.971856,74.7753603 143.979856,78.5293603 C144.052856,78.6643603 144.291856,78.9723603 144.291856,78.9723603 L144.291856,78.9723603 Z M129.637856,32.9613603 C130.310856,33.3913603 130.917856,33.1553603 131.419856,32.5333603 C137.909856,24.4633603 144.911856,16.6053603 149.604856,8.29736029 C149.769856,8.00836029 150.071856,7.22736029 150.071856,7.22736029 C151.061856,4.85636029 148.504856,0.537360295 144.313856,0.0743602946 C140.900856,-0.390639705 139.178856,1.38436029 138.569856,3.74636029 C135.220856,16.6993603 132.610856,22.5683603 129.253856,30.9383603 C128.939856,31.7213603 128.923856,32.5083603 129.637856,32.9613603 L129.637856,32.9613603 Z M152.506856,97.6373603 C154.339856,95.0193603 156.220856,91.8723603 157.904856,88.0793603 C158.045856,87.7673603 158.118856,87.4633603 158.118856,87.1763603 C158.118856,85.8463603 156.628856,85.2973603 156.051856,85.1993603 C154.963856,85.0183603 150.051856,85.0183603 148.960856,85.1993603 C148.386856,85.2973603 146.893856,85.8453603 146.893856,87.1763603 C146.893856,87.4633603 146.968856,87.7673603 147.109856,88.0793603 C148.792856,91.8723603 150.673856,95.0193603 152.506856,97.6373603 L152.506856,97.6373603 Z M136.909856,113.87936 C138.221856,113.15136 138.949856,111.95336 138.899856,110.59436 C138.876856,109.92636 138.663856,109.23536 138.283856,108.59836 L137.054856,106.54536 C134.457856,102.22036 133.918856,101.32136 131.506856,95.2593603 C130.577856,92.9203603 128.850856,90.4213603 126.805856,90.4233603 C126.362856,90.4293603 125.370856,90.6013603 124.767856,91.2343603 C124.408856,91.6023603 124.242856,92.0653603 124.262856,92.6063603 L124.265856,92.6863603 C125.069856,105.15536 130.391856,111.58336 130.436856,111.63736 C132.531856,114.49136 134.649856,115.21936 136.909856,113.87936 L136.909856,113.87936 Z M104.629856,75.9353603 C109.689856,71.0473603 112.404856,70.2733603 111.923856,69.0513603 C111.802856,68.4383603 111.228856,68.4473603 110.827856,68.5093603 C105.744856,69.2193603 103.101856,70.8893603 100.338856,71.9843603 C100.239856,72.0183603 100.034856,72.1713603 100.034856,72.1713603 C99.3928556,72.5943603 98.9168556,73.7803603 100.609856,75.4223603 C102.013856,76.8213603 104.041856,76.4753603 104.629856,75.9353603 L104.629856,75.9353603 Z M108.981856,102.43036 C108.407856,98.6843603 108.213856,97.4233603 108.213856,93.6743603 C108.213856,92.9323603 108.220856,92.0923603 108.235856,90.9633603 C108.235856,88.7533603 107.628856,86.1543603 105.911856,85.5003603 C105.519856,85.3543603 104.594856,85.1723603 103.840856,85.5233603 C103.397856,85.7283603 103.090856,86.0813603 102.922856,86.5683603 C101.499856,90.6753603 100.776856,94.7103603 100.776856,98.5563603 C100.776856,102.29836 101.467856,104.43536 101.491856,104.51336 C102.270856,107.60536 103.829856,108.92036 106.244856,108.53836 C108.130856,108.29336 109.347856,106.96736 109.347856,105.15136 C109.347856,104.94836 109.330856,104.74336 109.299856,104.53836 L108.981856,102.43036 L108.981856,102.43036 Z M122.852856,105.87536 C121.239856,101.36936 120.902856,100.43436 119.823856,94.3193603 C119.409856,91.9563603 118.264856,89.3233603 116.271856,89.0073603 C115.837856,88.9383603 114.820856,88.9433603 114.104856,89.4743603 C113.687856,89.7803603 113.436856,90.2053603 113.357856,90.7443603 C113.031856,92.8903603 112.867856,95.0193603 112.867856,97.0703603 C112.867856,105.05636 115.377856,109.58536 115.395856,109.61736 C116.826856,112.64936 118.725856,113.67736 121.187856,112.76136 C122.852856,112.19636 123.845856,110.91336 123.845856,109.32636 C123.845856,108.88236 123.765856,108.42736 123.604856,107.98036 L122.852856,105.87536 L122.852856,105.87536 Z M95.5638556,77.9063603 C95.1208556,78.0103603 94.7658556,78.2813603 94.5228556,78.7093603 C90.2638556,86.0133603 89.8028556,91.9383603 89.8028556,94.1473603 C89.8028556,94.8063603 89.8448556,95.1633603 89.8448556,95.1503603 C89.9728556,98.1913603 91.1378556,99.7243603 93.4088556,99.8413603 C94.3748556,99.9173603 95.2198556,99.6673603 95.8528556,99.1163603 C96.5118556,98.5473603 96.9028556,97.6903603 96.9578556,96.7063603 L97.0638556,94.6883603 C97.2838556,90.3673603 97.3238556,89.4683603 98.5128556,83.9953603 C98.6278556,83.4573603 98.7648556,82.6253603 98.7648556,81.7023603 C98.7648556,80.5393603 98.5398556,79.0123603 97.4548556,78.2943603 C97.1278556,78.0813603 96.3098556,77.7283603 95.5638556,77.9063603 L95.5638556,77.9063603 Z M77.2538556,39.2743603 C84.4258556,38.5823603 89.3688556,39.6073603 95.6958556,39.7063603 C96.3288556,39.7153603 96.8318556,39.5193603 96.9798556,39.0603603 C97.1148556,38.6203603 96.8808556,38.3183603 96.2898556,38.1863603 C89.5818556,36.1293603 82.0768556,33.6873603 76.5748556,33.2903603 C76.3958556,33.2773603 75.9528556,33.3073603 75.9528556,33.3073603 C74.6208556,33.3663603 72.9578556,35.4783603 74.0008556,37.3383603 C74.7828556,38.8123603 76.0908556,39.3853603 77.2538556,39.2743603 L77.2538556,39.2743603 Z M116.259856,71.6613603 C115.952856,71.3533603 115.534856,71.6363603 115.264856,71.8603603 C111.806856,74.7003603 110.266856,77.1463603 108.425856,79.3393603 C108.356856,79.4153603 108.228856,79.6433603 108.228856,79.6433603 C107.809856,80.3163603 107.619856,81.6413603 109.263856,82.4293603 C110.800856,83.2023603 112.491856,81.7253603 112.827856,80.8413603 C115.297856,74.0563603 117.104856,72.1813603 116.259856,71.6613603 L116.259856,71.6613603 Z M74.5118556,49.0343603 C81.4258556,46.9013603 85.4318556,46.8223603 92.6838556,45.4293603 C93.4508556,45.2793603 93.9588556,44.9353603 94.0198556,44.4153603 C94.0668556,43.9153603 93.6648556,43.6553603 92.9238556,43.6743603 C84.9928556,43.3373603 77.9988556,43.0213603 72.9948556,43.8923603 C72.8378556,43.9193603 72.4588556,44.0403603 72.4588556,44.0403603 C71.3188556,44.3713603 70.4338556,46.3653603 71.4378556,47.8423603 C72.2228556,49.0633603 73.4448556,49.3603603 74.5118556,49.0343603 L74.5118556,49.0343603 Z M76.5518556,60.7573603 C82.0768556,56.8203603 85.8388556,55.2713603 91.1388556,51.8643603 C91.6708556,51.5193603 91.8738556,50.9263603 91.7408556,50.4683603 C91.6038556,50.0263603 91.1388556,49.7513603 90.5718556,49.9693603 C84.5098556,51.2583603 77.3498556,53.1813603 72.5618556,55.8853603 C72.4068556,55.9733603 72.0568556,56.2423603 72.0568556,56.2423603 C70.9828556,57.0263603 70.8708556,59.9753603 72.7718556,60.9433603 C74.2478556,61.7373603 75.6518556,61.4933603 76.5518556,60.7573603 L76.5518556,60.7573603 Z M91.5808556,57.6133603 C91.3978556,57.3203603 90.8978556,57.0563603 90.2138556,57.3753603 C84.6888556,59.9593603 80.0018556,63.7403603 74.5858556,68.3403603 C74.4208556,68.4793603 74.1418556,68.9543603 74.1418556,68.9543603 C73.1778556,70.3233603 73.3678556,75.0953603 75.9578556,75.9773603 C78.0588556,76.7513603 79.8898556,74.8213603 80.6748556,73.4423603 C84.7618556,66.2413603 87.9048556,63.7883603 91.2218556,59.5433603 C91.5568556,59.1113603 92.1378556,58.4933603 91.5808556,57.6133603 L91.5808556,57.6133603 Z M92.3108556,70.5713603 C92.3108556,69.7223603 92.2718556,69.0563603 91.8388556,68.5903603 C91.5608556,68.3053603 90.8948556,68.0093603 90.1778556,68.0163603 C89.7458556,68.0243603 89.3658556,68.2033603 89.0508556,68.5503603 C82.1408556,76.0463603 81.8438556,81.8883603 81.8408556,81.9413603 C81.7268556,82.5543603 81.6728556,82.9073603 81.6728556,83.4033603 C81.6728556,85.2783603 82.0968556,86.7863603 83.7398556,87.2543603 C84.5978556,87.5303603 85.4208556,87.4763603 86.1198556,87.1053603 C86.8518556,86.7133603 87.3988556,85.9933603 87.6588556,85.0743603 L88.1728556,83.2563603 C89.2968556,79.2663603 88.9758556,79.1783603 91.2228556,74.3183603 C91.4948556,73.7273603 92.3108556,72.0203603 92.3108556,70.5713603 L92.3108556,70.5713603 Z M189.639856,35.5743603 C188.035856,36.4283603 187.793856,38.2933603 188.115856,38.9483603 C191.062856,44.6773603 191.013856,47.2563603 192.217856,47.1613603 C192.792856,47.2203603 192.937856,46.7133603 192.989856,46.3493603 C193.720856,41.7173603 192.960856,38.9613603 192.735856,36.2543603 C192.731856,36.1603603 192.654856,35.9413603 192.654856,35.9413603 C192.453856,35.2673603 191.535856,34.5353603 189.639856,35.5743603 L189.639856,35.5743603 Z M186.959856,30.2503603 C187.568856,30.2733603 187.790856,29.7073603 187.931856,29.1123603 C189.414856,22.7713603 190.264856,17.7853603 193.656856,8.73336029 C194.270856,7.08536029 193.956856,5.16436029 191.742856,4.03136029 C189.071856,2.57836029 186.059856,3.51136029 185.661856,5.32336029 C185.661856,5.32336029 185.516856,5.91036029 185.493856,6.14836029 C184.827856,13.0073603 185.642856,21.8253603 186.140856,29.2833603 C186.178856,29.8613603 186.381856,30.2283603 186.959856,30.2503603 L186.959856,30.2503603 Z M185.591856,86.4113603 C187.545856,86.3013603 187.900856,84.9123603 187.763856,84.0723603 C187.763856,84.0723603 187.728856,83.7933603 187.690856,83.6903603 C186.762856,80.7643603 186.580856,78.1043603 184.314856,73.8773603 C184.138856,73.5423603 183.842856,73.0943603 183.407856,73.2723603 C182.357856,73.4403603 183.038856,75.6463603 182.708856,83.3793603 C182.681856,84.3953603 183.754856,86.5483603 185.591856,86.4113603 L185.591856,86.4113603 Z M179.223856,36.7193603 C178.001856,38.0803603 178.422856,39.9253603 178.954856,40.4333603 C183.729856,44.8333603 184.580856,47.2883603 185.686856,46.7843603 C186.249856,46.6413603 186.207856,46.1113603 186.130856,45.7513603 C185.212856,41.1163603 183.540856,38.7743603 182.384856,36.2943603 C182.347856,36.2043603 182.196856,36.0233603 182.196856,36.0233603 C181.776856,35.4583603 180.652856,35.0793603 179.223856,36.7193603 L179.223856,36.7193603 Z M232.452856,55.8853603 C227.662856,53.1813603 220.504856,51.2583603 214.442856,49.9693603 C213.875856,49.7513603 213.410856,50.0263603 213.273856,50.4683603 C213.139856,50.9273603 213.340856,51.5203603 213.875856,51.8643603 C219.175856,55.2703603 222.937856,56.8203603 228.460856,60.7573603 C229.360856,61.4923603 230.766856,61.7363603 232.242856,60.9443603 C234.142856,59.9763603 234.029856,57.0273603 232.955856,56.2433603 C232.955856,56.2433603 232.605856,55.9733603 232.452856,55.8853603 L232.452856,55.8853603 Z M215.961856,68.5493603 C215.648856,68.2013603 215.268856,68.0233603 214.834856,68.0153603 C214.116856,68.0083603 213.450856,68.3043603 213.175856,68.5893603 C212.741856,69.0563603 212.700856,69.7223603 212.700856,70.5703603 C212.700856,72.0193603 213.516856,73.7263603 213.791856,74.3153603 C216.038856,79.1743603 215.716856,79.2623603 216.839856,83.2533603 L217.355856,85.0713603 C217.615856,85.9903603 218.163856,86.7113603 218.894856,87.1023603 C219.593856,87.4733603 220.415856,87.5283603 221.274856,87.2513603 C222.918856,86.7833603 223.341856,85.2753603 223.341856,83.4003603 C223.341856,82.9043603 223.286856,82.5513603 223.173856,81.9383603 C223.169856,81.8873603 222.873856,76.0453603 215.961856,68.5493603 L215.961856,68.5493603 Z M204.976856,72.1703603 C204.976856,72.1703603 204.771856,72.0183603 204.674856,71.9833603 C201.911856,70.8883603 199.268856,69.2183603 194.185856,68.5083603 C193.785856,68.4463603 193.208856,68.4373603 193.089856,69.0503603 C192.608856,70.2723603 195.322856,71.0463603 200.383856,75.9343603 C200.969856,76.4743603 202.999856,76.8203603 204.401856,75.4203603 C206.096856,73.7803603 205.620856,72.5933603 204.976856,72.1703603 L204.976856,72.1703603 Z M230.427856,68.3393603 C225.010856,63.7393603 220.324856,59.9583603 214.797856,57.3743603 C214.113856,57.0563603 213.615856,57.3193603 213.433856,57.6123603 C212.876856,58.4923603 213.454856,59.1103603 213.791856,59.5423603 C217.106856,63.7873603 220.249856,66.2403603 224.336856,73.4413603 C225.123856,74.8203603 226.954856,76.7513603 229.055856,75.9763603 C231.646856,75.0933603 231.836856,70.3223603 230.871856,68.9533603 C230.871856,68.9533603 230.590856,68.4783603 230.427856,68.3393603 L230.427856,68.3393603 Z M209.449856,77.9063603 C208.703856,77.7283603 207.886856,78.0823603 207.555856,78.2943603 C206.472856,79.0123603 206.247856,80.5393603 206.247856,81.7023603 C206.247856,82.6253603 206.384856,83.4573603 206.499856,83.9953603 C207.687856,89.4693603 207.728856,90.3673603 207.948856,94.6883603 L208.052856,96.7063603 C208.107856,97.6903603 208.500856,98.5473603 209.156856,99.1163603 C209.792856,99.6673603 210.636856,99.9173603 211.600856,99.8413603 C213.872856,99.7243603 215.038856,98.1913603 215.166856,95.1503603 C215.166856,95.1633603 215.208856,94.8063603 215.208856,94.1473603 C215.208856,91.9393603 214.747856,86.0133603 210.487856,78.7093603 C210.245856,78.2813603 209.892856,78.0103603 209.449856,77.9063603 L209.449856,77.9063603 Z M200.241856,37.9633603 C198.432856,38.0203603 197.398856,39.5783603 197.394856,40.3053603 C197.492856,46.7103603 196.278856,50.8433603 197.398856,51.2843603 C197.882856,51.5903603 198.236856,51.2013603 198.441856,50.8973603 C202.737856,43.4713603 202.740856,41.4603603 202.740856,41.4603603 C202.857856,40.7723603 202.393856,37.8673603 200.241856,37.9633603 L200.241856,37.9633603 Z M208.033856,39.0593603 C208.181856,39.5193603 208.682856,39.7143603 209.316856,39.7053603 C215.644856,39.6063603 220.586856,38.5813603 227.757856,39.2733603 C228.920856,39.3843603 230.231856,38.8113603 231.010856,37.3353603 C232.054856,35.4763603 230.391856,33.3633603 229.060856,33.3043603 C229.060856,33.3043603 228.617856,33.2753603 228.438856,33.2873603 C222.936856,33.6843603 215.431856,36.1263603 208.723856,38.1833603 C208.131856,38.3173603 207.896856,38.6193603 208.033856,39.0593603 L208.033856,39.0593603 Z M212.090856,43.6733603 C211.347856,43.6543603 210.944856,43.9143603 210.992856,44.4143603 C211.054856,44.9343603 211.562856,45.2773603 212.327856,45.4283603 C219.579856,46.8223603 223.588856,46.9013603 230.502856,49.0333603 C231.566856,49.3593603 232.789856,49.0623603 233.575856,47.8413603 C234.578856,46.3643603 233.692856,44.3703603 232.554856,44.0393603 C232.554856,44.0393603 232.173856,43.9183603 232.016856,43.8913603 C227.014856,43.0203603 220.020856,43.3363603 212.090856,43.6733603 L212.090856,43.6733603 Z M198.679856,56.6543603 C198.905856,57.2173603 199.445856,57.1333603 199.806856,57.0243603 C204.445856,55.6963603 206.268856,54.2653603 208.663856,52.8783603 C208.749856,52.8333603 208.913856,52.6623603 208.913856,52.6623603 C209.438856,52.1823603 210.402856,50.2253603 208.520856,48.9013603 C206.952856,47.7663603 205.110856,48.3553603 204.658856,48.9393603 C200.792856,54.1973603 198.004856,55.5673603 198.679856,56.6543603 L198.679856,56.6543603 Z M198.156856,32.2613603 C198.591856,32.5963603 199.017856,32.4813603 199.428856,32.1183603 C203.830856,28.2323603 206.887856,25.5263603 214.105856,20.6393603 C215.418856,19.7483603 216.239856,18.0813603 215.207856,16.1043603 C214.003856,13.6503603 211.122856,13.1003603 209.880856,14.2233603 C209.880856,14.2233603 209.466856,14.5783603 209.325856,14.7433603 C205.503856,19.1433603 201.525856,25.0973603 197.811856,31.1323603 C197.539856,31.5773603 197.746856,31.9443603 198.156856,32.2613603 L198.156856,32.2613603 Z M192.352856,30.4793603 C192.868856,30.6563603 193.287856,30.5323603 193.563856,30.0583603 C196.498856,24.9773603 199.363856,20.1553603 204.647856,13.2363603 C205.609856,11.9753603 205.863856,10.1923603 204.250856,8.64436029 C202.329856,6.69936029 199.312856,6.79636029 198.492856,8.25636029 C198.492856,8.25636029 198.215856,8.72236029 198.134856,8.92236029 C195.771856,14.6573603 193.494856,22.7863603 191.974856,29.3383603 C191.858856,29.8483603 191.858856,30.3093603 192.352856,30.4793603 L192.352856,30.4793603 Z M206.969856,66.0633603 C207.813856,66.2223603 209.715856,65.0833603 209.895856,62.8873603 C210.136856,60.4173603 208.654856,59.6763603 207.900856,59.6763603 C207.900856,59.6763603 207.646856,59.6613603 207.547856,59.6893603 C204.728856,60.3113603 203.762856,61.2483603 197.999856,62.9083603 C197.627856,63.0893603 197.132856,63.4223603 197.344856,64.0583603 C197.563856,65.5073603 200.871856,65.3083603 206.969856,66.0633603 L206.969856,66.0633603 Z M202.620856,35.3103603 C202.905856,35.7773603 203.452856,35.8773603 203.967856,35.6903603 C209.477856,33.6373603 213.714856,31.9243603 222.210856,29.9473603 C223.758856,29.5873603 224.947856,28.4433603 224.698856,26.2273603 C224.461856,23.5073603 221.930856,21.7343603 220.366856,22.3373603 C220.366856,22.3373603 219.852856,22.5223603 219.662856,22.6253603 C214.175856,25.5433603 207.362856,30.0273603 202.773856,34.3323603 C202.393856,34.6893603 202.348856,34.8703603 202.620856,35.3103603 L202.620856,35.3103603 Z M178.898856,46.1673603 C176.655856,43.3163603 175.425856,42.8873603 173.792856,41.7033603 C173.735856,41.6553603 173.576856,41.6013603 173.576856,41.6013603 C173.098856,41.4143603 171.549856,41.3243603 171.207856,43.2283603 C170.903856,44.8253603 171.833856,45.9343603 172.357856,46.0253603 C177.021856,46.7393603 178.444856,48.0603603 178.978856,47.1343603 C179.295856,46.7453603 179.077856,46.3873603 178.898856,46.1673603 L178.898856,46.1673603 Z M179.711856,30.0843603 C179.944856,30.7223603 180.333856,31.1083603 180.989856,30.9443603 C181.686856,30.7683603 182.070856,30.1993603 182.030856,29.4843603 C181.592856,21.8353603 180.940856,16.2983603 181.749856,4.95736029 C181.895856,2.89036029 180.691856,0.895360295 177.815856,0.352360295 C174.313856,-0.400639705 170.879856,1.99336029 171.035856,4.16836029 C171.035856,4.16836029 171.068856,4.87836029 171.119856,5.15436029 C172.656856,13.1173603 176.663856,21.8323603 179.711856,30.0843603 L179.711856,30.0843603 Z M169.933856,53.3373603 C173.511856,52.2793603 174.977856,52.8893603 175.048856,51.9173603 C175.147856,51.4763603 174.869856,51.2513603 174.667856,51.1303603 C172.103856,49.5233603 171.076856,49.5973603 169.508856,49.1763603 C169.453856,49.1583603 169.321856,49.1693603 169.321856,49.1693603 C168.917856,49.1823603 167.773856,49.6553603 168.169856,51.3833603 C168.488856,52.8393603 169.527856,53.4453603 169.933856,53.3373603 L169.933856,53.3373603 Z M173.962856,64.4373603 C174.640856,64.6163603 175.106856,64.3313603 175.141856,64.1483603 C175.426856,62.5143603 175.983856,62.0643603 175.591856,61.8323603 C175.422856,61.7023603 175.271856,61.7653603 175.179856,61.8193603 C173.981856,62.4943603 173.805856,62.9173603 173.308856,63.4473603 C173.287856,63.4643603 173.267856,63.5203603 173.267856,63.5203603 C173.190856,63.6833603 173.153856,64.2323603 173.962856,64.4373603 L173.962856,64.4373603 Z M174.712856,56.8383603 C174.584856,56.5333603 174.322856,56.5133603 174.150856,56.5243603 C171.935856,56.6283603 171.349856,57.1023603 170.228856,57.5033603 C170.189856,57.5153603 170.114856,57.5763603 170.114856,57.5763603 C169.875856,57.7543603 169.386856,58.5143603 170.350856,59.3893603 C171.154856,60.1323603 172.034856,60.0623603 172.231856,59.8273603 C173.940856,57.6993603 175.076856,57.4533603 174.712856,56.8383603 L174.712856,56.8383603 Z M175.704856,86.6573603 C177.931856,87.1473603 178.768856,85.7043603 178.880856,84.7213603 C178.880856,84.7213603 178.930856,84.3973603 178.922856,84.2693603 C178.811856,80.7053603 179.192856,78.0613603 177.994856,72.6213603 C177.903856,72.1903603 177.713856,71.5973603 177.171856,71.6603603 C175.939856,71.5193603 176.264856,73.8113603 173.439856,82.3613603 C173.088856,83.4923603 173.605856,86.2383603 175.704856,86.6573603 L175.704856,86.6573603 Z M169.765856,91.5583603 C169.822856,91.3703603 169.851856,91.1863603 169.860856,91.0093603 C169.926856,89.5083603 168.291856,88.9573603 167.650856,88.8713603 C165.545856,88.6133603 162.436856,90.2433603 160.932856,92.5553603 C157.002856,98.5693603 156.976856,100.18436 153.270856,104.36636 L152.505856,105.14236 L151.740856,104.36636 C148.033856,100.18436 148.008856,98.5693603 144.078856,92.5553603 C142.574856,90.2433603 139.468856,88.6143603 137.359856,88.8713603 C136.721856,88.9573603 135.084856,89.5083603 135.151856,91.0093603 C135.160856,91.1863603 135.189856,91.3703603 135.247856,91.5583603 C139.003856,104.43436 146.012856,111.19436 146.072856,111.24636 C148.146856,113.22836 150.563856,114.39836 152.505856,114.22536 C154.447856,114.39936 156.862856,113.22936 158.940856,111.24636 C159.000856,111.19436 166.008856,104.43436 169.765856,91.5583603 L169.765856,91.5583603 Z M178.209856,90.4233603 C176.161856,90.4213603 174.437856,92.9203603 173.507856,95.2593603 C171.094856,101.32136 170.556856,102.22036 167.958856,106.54536 L166.730856,108.59836 C166.349856,109.23536 166.135856,109.92636 166.113856,110.59436 C166.062856,111.95336 166.790856,113.15236 168.104856,113.87936 C170.361856,115.21936 172.482856,114.49036 174.577856,111.63736 C174.621856,111.58336 179.944856,105.15536 180.748856,92.6863603 L180.750856,92.6063603 C180.771856,92.0653603 180.604856,91.6023603 180.247856,91.2343603 C179.640856,90.6013603 178.649856,90.4293603 178.209856,90.4233603 L178.209856,90.4233603 Z M155.407856,8.29836029 C160.101856,16.6063603 167.101856,24.4643603 173.593856,32.5343603 C174.094856,33.1563603 174.703856,33.3923603 175.376856,32.9623603 C176.088856,32.5083603 176.073856,31.7223603 175.761856,30.9393603 C172.404856,22.5693603 169.791856,16.7003603 166.445856,3.74736029 C165.836856,1.38536029 164.113856,-0.389639705 160.699856,0.0753602946 C156.511856,0.538360295 153.952856,4.85736029 154.943856,7.22836029 C154.942856,7.22736029 155.242856,8.00936029 155.407856,8.29836029 L155.407856,8.29836029 Z M164.851856,46.6013603 C164.814856,45.9943603 164.227856,45.8293603 163.622856,45.7473603 C159.823856,45.2473603 156.484856,44.9013603 152.506856,44.2123603 C148.528856,44.9013603 145.190856,45.2473603 141.392856,45.7473603 C140.786856,45.8293603 140.199856,45.9943603 140.161856,46.6013603 C140.128856,47.1753603 140.475856,47.4133603 141.050856,47.5083603 C144.674856,48.1053603 148.613856,48.8003603 152.507856,49.3633603 C156.400856,48.8003603 160.341856,48.1043603 163.963856,47.5083603 C164.536856,47.4123603 164.884856,47.1753603 164.851856,46.6013603 L164.851856,46.6013603 Z M162.326856,58.6313603 C158.993856,60.5783603 156.117856,62.3653603 152.506856,64.2773603 C148.896856,62.3653603 146.020856,60.5783603 142.685856,58.6313603 C142.157856,58.3243603 141.589856,58.0953603 141.185856,58.5533603 C140.808856,58.9853603 140.932856,59.3853603 141.328856,59.8143603 C144.818856,63.5773603 148.672856,67.8643603 152.507856,71.5683603 C156.343856,67.8643603 160.196856,63.5773603 163.685856,59.8143603 C164.081856,59.3853603 164.206856,58.9853603 163.829856,58.5533603 C163.424856,58.0953603 162.857856,58.3253603 162.326856,58.6313603 L162.326856,58.6313603 Z M167.745856,41.3463603 C167.952856,40.6623603 167.659856,40.0383603 167.022856,39.7053603 C162.055856,37.1033603 157.968856,35.1453603 152.505856,31.7543603 C147.043856,35.1463603 142.954856,37.1043603 137.989856,39.7053603 C137.352856,40.0383603 137.059856,40.6623603 137.266856,41.3463603 C137.463856,41.9923603 137.995856,42.1253603 138.665856,41.9953603 C143.173856,41.1393603 147.908856,40.4243603 152.504856,39.5553603 C157.100856,40.4243603 161.836856,41.1393603 166.342856,41.9953603 C167.014856,42.1253603 167.548856,41.9933603 167.745856,41.3463603 L167.745856,41.3463603 Z M201.173856,85.5243603 C200.417856,85.1723603 199.491856,85.3543603 199.102856,85.5013603 C197.384856,86.1553603 196.777856,88.7543603 196.777856,90.9643603 C196.794856,92.0933603 196.798856,92.9333603 196.798856,93.6753603 C196.798856,97.4243603 196.607856,98.6853603 196.032856,102.43136 L195.712856,104.54036 C195.683856,104.74536 195.666856,104.95036 195.666856,105.15336 C195.666856,106.96836 196.883856,108.29536 198.767856,108.54036 C201.184856,108.92236 202.741856,107.60636 203.522856,104.51536 C203.546856,104.43736 204.238856,102.30036 204.238856,98.5583603 C204.238856,94.7113603 203.515856,90.6773603 202.090856,86.5703603 C201.921856,86.0813603 201.613856,85.7293603 201.173856,85.5243603 L201.173856,85.5243603 Z M163.999856,52.3783603 C163.771856,51.8113603 163.161856,51.8383603 162.561856,51.9503603 C159.111856,52.6023603 156.066856,53.2543603 152.506856,53.8143603 C148.947856,53.2533603 145.902856,52.6023603 142.452856,51.9503603 C141.850856,51.8383603 141.239856,51.8103603 141.013856,52.3783603 C140.804856,52.9123603 141.057856,53.2473603 141.573856,53.5183603 C145.027856,55.3173603 148.776856,57.3303603 152.507856,59.1653603 C156.238856,57.3293603 159.987856,55.3163603 163.440856,53.5183603 C163.956856,53.2473603 164.209856,52.9123603 163.999856,52.3783603 L163.999856,52.3783603 Z M165.268856,84.9983603 C167.430856,86.1423603 168.712856,84.8873603 169.110856,83.9023603 C169.110856,83.9023603 169.251856,83.5803603 169.286856,83.4493603 C170.191856,79.7253603 171.618856,76.1293603 171.950856,70.1553603 C171.973856,69.6833603 171.950856,69.0153603 171.372856,68.9263603 C170.137856,68.4293603 169.544856,71.8633603 164.159856,79.9053603 C163.472856,80.9763603 163.220856,83.9653603 165.268856,84.9983603 L165.268856,84.9983603 Z M196.785856,79.6443603 C196.785856,79.6443603 196.655856,79.4163603 196.588856,79.3403603 C194.745856,77.1473603 193.207856,74.7003603 189.749856,71.8613603 C189.477856,71.6363603 189.061856,71.3543603 188.752856,71.6623603 C187.907856,72.1823603 189.716856,74.0573603 192.185856,80.8433603 C192.523856,81.7273603 194.213856,83.2043603 195.748856,82.4313603 C197.394856,81.6423603 197.204856,80.3173603 196.785856,79.6443603 L196.785856,79.6443603 Z M160.720856,78.9723603 C160.720856,78.9723603 160.962856,78.6643603 161.033856,78.5303603 C163.040856,74.7763603 164.837856,72.4203603 166.846856,66.0843603 C167.004856,65.5833603 167.163856,64.8583603 166.569856,64.6023603 C165.374856,63.7263603 164.520856,66.1333603 156.494856,73.3113603 C155.460856,74.2733603 154.358856,77.4203603 156.281856,79.0963603 C158.290856,80.9203603 160.017856,79.9223603 160.720856,78.9723603 L160.720856,78.9723603 Z M190.907856,89.4743603 C190.190856,88.9433603 189.175856,88.9383603 188.741856,89.0073603 C186.749856,89.3233603 185.601856,91.9563603 185.188856,94.3193603 C184.110856,100.43336 183.772856,101.36936 182.158856,105.87536 L181.408856,107.97936 C181.247856,108.42536 181.167856,108.88036 181.167856,109.32536 C181.167856,110.91236 182.158856,112.19436 183.823856,112.76036 C186.286856,113.67636 188.184856,112.64936 189.615856,109.61636 C189.636856,109.58436 192.145856,105.05536 192.145856,97.0693603 C192.145856,95.0183603 191.979856,92.8883603 191.653856,90.7433603 C191.577856,90.2053603 191.324856,89.7803603 190.907856,89.4743603 L190.907856,89.4743603 Z M177.263856,117.45636 C176.853856,117.26636 176.354856,117.36436 176.142856,117.44336 C175.210856,117.79736 174.881856,119.20736 174.881856,120.40336 C174.890856,121.01436 174.892856,121.46936 174.892856,121.87436 C174.892856,123.90536 174.789856,124.58836 174.479856,126.61636 L174.305856,127.76036 C174.288856,127.87336 174.281856,127.98636 174.281856,128.09536 C174.281856,129.07736 174.940856,129.79636 175.961856,129.92836 C177.272856,130.13736 178.114856,129.42336 178.537856,127.74736 C178.550856,127.70536 178.925856,126.54736 178.925856,124.51836 C178.925856,122.43636 178.533856,120.25036 177.762856,118.02436 C177.669856,117.75836 177.504856,117.56636 177.263856,117.45636 L177.263856,117.45636 Z M164.818856,120.11136 C163.710856,120.11136 162.774856,121.46536 162.271856,122.73336 C160.963856,126.01936 160.670856,126.50536 159.263856,128.84936 L158.597856,129.96136 C158.392856,130.30536 158.276856,130.68036 158.262856,131.04436 C158.235856,131.77936 158.630856,132.42936 159.340856,132.82236 C160.566856,133.54936 161.715856,133.15336 162.849856,131.60736 C162.872856,131.57836 165.758856,128.09436 166.194856,121.33636 L166.197856,121.29436 C166.207856,121.00236 166.117856,120.75136 165.923856,120.55236 C165.596856,120.20636 165.057856,120.11536 164.818856,120.11136 L164.818856,120.11136 Z M171.701856,119.59736 C171.311856,119.31036 170.761856,119.30836 170.526856,119.34236 C169.447856,119.51536 168.825856,120.94436 168.601856,122.22236 C168.016856,125.53736 167.832856,126.04236 166.958856,128.48736 L166.552856,129.62536 C166.464856,129.87036 166.420856,130.11536 166.420856,130.35636 C166.420856,131.21636 166.958856,131.91036 167.861856,132.21536 C169.195856,132.71236 170.225856,132.15436 170.999856,130.51436 C171.010856,130.49536 172.369856,128.04036 172.369856,123.71336 C172.369856,122.60136 172.281856,121.44836 172.104856,120.28436 C172.063856,119.99436 171.926856,119.76136 171.701856,119.59736 L171.701856,119.59736 Z M138.053856,128.48736 C137.178856,126.04336 136.995856,125.53836 136.411856,122.22236 C136.188856,120.94436 135.566856,119.51536 134.486856,119.34236 C134.251856,119.30836 133.702856,119.31036 133.311856,119.59736 C133.086856,119.76136 132.951856,119.99336 132.907856,120.28536 C132.732856,121.44936 132.640856,122.60136 132.640856,123.71436 C132.640856,128.04136 134.001856,130.49636 134.012856,130.51536 C134.787856,132.15636 135.816856,132.71336 137.152856,132.21636 C138.052856,131.91036 138.590856,131.21736 138.590856,130.35736 C138.590856,130.11636 138.548856,129.87136 138.460856,129.62636 L138.053856,128.48736 L138.053856,128.48736 Z M130.535856,126.61736 C130.223856,124.58936 130.119856,123.90636 130.119856,121.87536 C130.119856,121.47136 130.123856,121.01636 130.132856,120.40436 C130.132856,119.20836 129.801856,117.79936 128.872856,117.44436 C128.659856,117.36536 128.158856,117.26636 127.748856,117.45736 C127.511856,117.56636 127.343856,117.75936 127.253856,118.02436 C126.481856,120.25136 126.089856,122.43636 126.089856,124.51836 C126.089856,126.54736 126.464856,127.70636 126.475856,127.74736 C126.900856,129.42336 127.746856,130.13736 129.053856,129.92836 C130.074856,129.79636 130.735856,129.07736 130.735856,128.09536 C130.735856,127.98636 130.725856,127.87336 130.710856,127.76036 L130.535856,126.61736 L130.535856,126.61736 Z M145.749856,128.84936 C144.342856,126.50536 144.050856,126.01936 142.743856,122.73336 C142.238856,121.46536 141.304856,120.11136 140.194856,120.11136 C139.955856,120.11536 139.417856,120.20736 139.091856,120.55236 C138.895856,120.75136 138.805856,121.00236 138.817856,121.29436 L138.819856,121.33636 C139.253856,128.09536 142.139856,131.57836 142.161856,131.60736 C143.300856,133.15336 144.446856,133.54836 145.671856,132.82236 C146.380856,132.42836 146.775856,131.77936 146.750856,131.04436 C146.735856,130.68036 146.622856,130.30536 146.415856,129.96136 L145.749856,128.84936 L145.749856,128.84936 Z" id="Shape" fill="#FFFFFF" sketch:type="MSShapeGroup"></path>
        <rect id="Rectangle-path" fill="#FFFFFF" sketch:type="MSShapeGroup" x="0" y="121" width="97.042" height="6.042"></rect>
        <rect id="Rectangle-path" fill="#FFFFFF" sketch:type="MSShapeGroup" x="207" y="121" width="97.041" height="6.042"></rect>
        <rect id="Rectangle-path" fill="#FFFFFF" sketch:type="MSShapeGroup" x="0" y="210" width="303.917" height="6.042"></rect>
        <g id="Group" sketch:type="MSLayerGroup" transform="translate(0.000000, 146.000000)" fill="#FFFFFF">
            <path d="M28.278,25.988 C28.087,21.827 27.848,16.806 27.896,12.454 L27.752,12.454 C26.7,16.376 25.361,20.727 23.926,24.792 L19.239,38.756 L14.696,38.756 L10.392,24.984 C9.149,20.872 8.001,16.472 7.141,12.455 L7.045,12.455 C6.901,16.664 6.71,21.78 6.471,26.18 L5.753,39.14 L0.254,39.14 L2.406,6.909 L10.153,6.909 L14.361,19.869 C15.509,23.646 16.513,27.473 17.326,31.058 L17.47,31.058 C18.331,27.568 19.431,23.598 20.674,19.821 L25.121,6.909 L32.772,6.909 L34.637,39.14 L28.898,39.14 L28.278,25.988 L28.278,25.988 Z" id="Shape" sketch:type="MSShapeGroup"></path>
            <path d="M43.722,6.907 L49.174,19.341 C50.035,21.445 50.704,23.358 51.469,25.271 L51.613,25.271 C52.091,23.789 52.665,21.732 53.43,19.198 L57.638,6.908 L63.855,6.908 L57.495,22.976 C55.63,27.663 53.574,32.539 51.278,35.552 C49.174,38.183 46.639,39.665 43.244,39.665 C41.857,39.665 40.996,39.521 40.231,39.234 L40.709,34.5 C41.187,34.644 41.809,34.691 42.717,34.691 C45.443,34.691 47.165,32.395 47.978,30.579 C48.265,29.909 48.169,29.478 47.834,28.857 L37.074,6.907 L43.722,6.907 L43.722,6.907 Z" id="Shape" sketch:type="MSShapeGroup"></path>
            <path d="M88.482,6.907 L88.482,34.452 L91.543,34.596 L91.209,47.125 L86.714,47.125 L86.379,39.139 L66.82,39.139 L66.485,47.125 L61.99,47.125 L61.703,34.596 L64.286,34.452 C65.529,32.205 66.677,29.861 67.394,27.327 C68.398,23.884 68.781,19.963 68.781,15.324 L68.781,6.907 L88.482,6.907 L88.482,6.907 Z M74.231,16.807 C74.231,21.206 73.752,25.175 72.701,28.571 C72.079,30.675 71.171,32.731 70.31,34.309 L82.6,34.309 L82.6,11.738 L74.231,11.738 L74.231,16.807 L74.231,16.807 Z" id="Shape" sketch:type="MSShapeGroup"></path>
            <path d="M96.179,7.338 C98.283,6.955 101.2,6.668 105.169,6.668 C109.473,6.668 112.629,7.577 114.685,9.299 C116.598,10.876 117.841,13.411 117.841,16.424 C117.841,19.485 116.885,22.019 115.068,23.74 C112.725,26.084 109.043,27.183 104.882,27.183 C103.782,27.183 102.778,27.135 102.013,26.992 L102.013,39.138 L96.179,39.138 L96.179,7.338 L96.179,7.338 Z M102.013,22.354 C102.73,22.545 103.687,22.593 104.882,22.593 C109.281,22.593 111.96,20.441 111.96,16.663 C111.96,13.076 109.473,11.163 105.408,11.163 C103.783,11.163 102.635,11.307 102.013,11.45 L102.013,22.354 L102.013,22.354 Z" id="Shape" sketch:type="MSShapeGroup"></path>
            <path d="M128.744,6.907 L128.744,18.527 C129.701,18.337 131.327,18.241 132.474,18.241 C139.073,18.241 145.051,21.397 145.051,28.618 C145.051,31.583 144.094,33.83 142.516,35.504 C139.647,38.469 134.625,39.474 130.082,39.474 C126.878,39.474 124.392,39.235 122.909,39.043 L122.909,6.907 L128.744,6.907 L128.744,6.907 Z M128.744,34.787 C129.461,34.931 130.418,34.978 131.613,34.978 C135.439,34.978 138.882,32.921 138.882,28.761 C138.882,24.505 135.104,22.831 131.613,22.831 C130.418,22.831 129.365,22.927 128.744,23.022 L128.744,34.787 L128.744,34.787 Z M154.185,6.907 L154.185,39.138 L148.303,39.138 L148.303,6.907 L154.185,6.907 L154.185,6.907 Z" id="Shape" sketch:type="MSShapeGroup"></path>
            <path d="M166.854,6.907 L166.854,18.289 C166.854,23.405 166.71,28.14 166.471,32.443 L166.567,32.491 C168.241,28.857 170.345,24.983 172.45,21.349 L180.962,6.907 L186.94,6.907 L186.94,39.138 L181.489,39.138 L181.489,27.708 C181.489,22.64 181.537,18.526 181.919,14.366 L181.823,14.366 C180.293,18.049 178.141,22.065 176.085,25.509 L167.956,39.138 L161.404,39.138 L161.404,6.907 L166.854,6.907 L166.854,6.907 Z M171.637,-0.17 C171.781,1.504 172.307,2.747 174.123,2.747 C175.94,2.747 176.515,1.552 176.658,-0.17 L180.818,-0.17 C180.531,3.512 178.188,5.377 174.028,5.377 C169.963,5.377 167.811,3.416 167.476,-0.17 L171.637,-0.17 L171.637,-0.17 Z" id="Shape" sketch:type="MSShapeGroup"></path>
            <path d="M209.747,11.833 L200.565,11.833 L200.565,6.907 L224.906,6.907 L224.906,11.833 L215.629,11.833 L215.629,39.139 L209.747,39.139 L209.747,11.833 L209.747,11.833 Z" id="Shape" sketch:type="MSShapeGroup"></path>
            <path d="M246.711,24.84 L234.565,24.84 L234.565,34.309 L248.146,34.309 L248.146,39.139 L228.683,39.139 L228.683,6.908 L247.429,6.908 L247.429,11.738 L234.565,11.738 L234.565,20.058 L246.711,20.058 L246.711,24.84 L246.711,24.84 Z" id="Shape" sketch:type="MSShapeGroup"></path>
            <path d="M276.407,38.183 C275.02,38.9 271.96,39.618 268.086,39.618 C257.853,39.618 251.636,33.21 251.636,23.406 C251.636,12.79 259,6.382 268.852,6.382 C272.725,6.382 275.498,7.195 276.694,7.817 L275.403,12.504 C273.873,11.835 271.769,11.261 269.091,11.261 C262.54,11.261 257.806,15.374 257.806,23.12 C257.806,30.198 261.966,34.741 269.044,34.741 C271.435,34.741 273.921,34.262 275.451,33.546 L276.407,38.183 L276.407,38.183 Z" id="Shape" sketch:type="MSShapeGroup"></path>
            <path d="M288.838,11.833 L279.656,11.833 L279.656,6.907 L303.997,6.907 L303.997,11.833 L294.72,11.833 L294.72,39.139 L288.838,39.139 L288.838,11.833 L288.838,11.833 Z" id="Shape" sketch:type="MSShapeGroup"></path>
        </g>
    </g>
</svg>